<svg xmlns="http://www.w3.org/2000/svg" viewBox="0 0 64 64" width="64" height="64">
  <g fill="#b54420">
    <path d="M14 36 L4 30 M14 41 L3 41 M15 46 L5 53 M50 36 L60 30 M50 41 L61 41 M49 46 L59 53" stroke="#b54420" stroke-width="4.2" stroke-linecap="round"></path>
    <ellipse cx="32" cy="40" rx="20" ry="14"></ellipse>
    <path d="M16 30 C10 28 6 22 8 15 C10 9 17 8 21 12 C24 15 23 19 20 21 L24 25 Z"></path>
    <path d="M48 30 C54 28 58 22 56 15 C54 9 47 8 43 12 C40 15 41 19 44 21 L40 25 Z"></path>
  </g>
  <circle cx="25" cy="37" r="3.6" fill="#f2e7cc"></circle>
  <circle cx="39" cy="37" r="3.6" fill="#f2e7cc"></circle>
  <circle cx="25" cy="37" r="1.5" fill="#2a2017"></circle>
  <circle cx="39" cy="37" r="1.5" fill="#2a2017"></circle>
</svg>